<?xml version="1.0" encoding="UTF-8"?>
<svg viewBox="0 0 24 25" version="1.1" xmlns="http://www.w3.org/2000/svg" xmlns:xlink="http://www.w3.org/1999/xlink">
  <g stroke="none" stroke-width="1" fill="none" fill-rule="evenodd">
    <g transform="translate(-20.000000, -18.000000)">
      <g transform="translate(20.000000, 18.393581)">
        <path d="M23.49,12.27 C23.49,11.48 23.42,10.73 23.3,10 L12,10 L12,14.51 L18.47,14.51 C18.18,15.99 17.33,17.24 16.07,18.09 L16.07,21.09 L19.93,21.09 C22.19,19 23.49,15.92 23.49,12.27 Z" fill="#4285F4" fill-rule="nonzero"></path>
        <path d="M12,24 C15.24,24 17.95,22.92 19.93,21.09 L16.07,18.09 C14.99,18.81 13.62,19.25 12,19.25 C8.87,19.25 6.22,17.14 5.27,14.29 L1.29,14.29 L1.29,17.38 C3.26,21.3 7.31,24 12,24 Z" fill="#34A853" fill-rule="nonzero"></path>
        <path d="M5.27,14.29 C5.02,13.57 4.89,12.8 4.89,12 C4.89,11.2 5.03,10.43 5.27,9.71 L5.27,6.62 L1.29,6.62 C0.47,8.24 0,10.06 0,12 C0,13.94 0.47,15.76 1.29,17.38 L5.27,14.29 Z" fill="#FABB05" fill-rule="nonzero"></path>
        <path d="M12,4.75 C13.77,4.75 15.35,5.36 16.6,6.55 L16.6,6.55 L20.02,3.13 C17.95,1.19 15.24,0 12,0 C7.31,0 3.26,2.7 1.29,6.62 L5.27,9.71 C6.22,6.86 8.87,4.75 12,4.75 Z" fill="#E94235" fill-rule="nonzero"></path>
      </g>
    </g>
  </g>
</svg>
